<?xml version="1.0" encoding="iso-8859-1"?>
<svg xmlns="http://www.w3.org/2000/svg" xmlns:xlink="http://www.w3.org/1999/xlink" version="1.1" viewBox="0 0 409.221 409.221" enable-background="new 0 0 409.221 409.221" width="512px" height="512px">
  <path d="m194.61,296.44v-33.747c-11.604-4.119-19.934-15.196-19.934-28.182 0-5.522 4.478-10 10-10s10,4.478 10,10c0,5.458 4.456,9.897 9.934,9.897 5.477,0 9.933-4.457 9.933-9.935 0-5.522 4.478-10 10-10s10,4.478 10,10c0,13.001-8.329,24.093-19.933,28.217v33.749c0,5.522-4.478,10-10,10s-10-4.476-10-9.999zm-81.648-259.223c0-20.522 16.695-37.217 37.216-37.217h108.866c20.521,0 37.215,16.695 37.215,37.216 0,17.059-11.535,31.473-27.215,35.853v63.323c0,0.617-0.058,1.233-0.171,1.84l-9.142,48.838c-3.132,16.73-14.599,27.541-29.213,27.541h-51.817c-14.614,0-26.08-10.811-29.211-27.541l-9.141-48.831c-0.113-0.606-0.171-1.223-0.171-1.84v-63.33c-15.679-4.38-27.216-18.795-27.216-35.852zm136.082,91.647h-88.865v6.605l8.97,47.92c0.351,1.874 2.459,11.221 9.553,11.221h51.817c7.095,0 9.204-9.348 9.555-11.221l8.971-47.926v-6.599zm-.001-54.431h-88.865v34.432h88.865v-34.432zm-116.082-37.217c0,9.493 7.723,17.217 17.216,17.217h0.001 108.865c9.492,0 17.215-7.723 17.215-17.216s-7.723-17.217-17.215-17.217h-108.866c-9.493,0-17.216,7.723-17.216,17.216zm156.905,279.025c-5.522,0-10,4.478-10,10v62.978h-150.511v-62.978c0-5.522-4.478-10-10-10s-10,4.478-10,10v72.978c0,5.522 4.478,10 10,10h170.511c5.522,0 10-4.478 10-10v-72.978c5.68434e-14-5.522-4.477-10-10-10zm51.939-36.45l-69.916-53.271c-4.395-3.349-10.669-2.499-14.015,1.894-3.348,4.394-2.499,10.668 1.894,14.015l65.977,50.27v106.522c0,5.522 4.478,10 10,10s10-4.478 10-10v-111.476c-0.001-3.121-1.458-6.062-3.94-7.954zm-175.347,69.272c-5.522,0-10,4.478-10,10v1.898c0,5.522 4.478,10 10,10s10-4.478 10-10v-1.898c0-5.522-4.478-10-10-10zm10-38.142c0-5.522-4.478-10-10-10s-10,4.478-10,10v1.899c0,5.522 4.478,10 10,10s10-4.478 10-10v-1.899zm66.304,60.041c5.522,0 10-4.478 10-10v-1.898c0-5.522-4.478-10-10-10s-10,4.478-10,10v1.898c0,5.522 4.477,10 10,10zm10-60.041c0-5.522-4.478-10-10-10s-10,4.478-10,10v1.899c0,5.522 4.478,10 10,10s10-4.478 10-10v-1.899zm-101.363-82.504c-3.346-4.396-9.621-5.245-14.014-1.898l-69.969,53.271c-2.484,1.891-3.942,4.834-3.942,7.956v111.476c0,5.522 4.478,10 10,10s10-4.478 10-10v-106.522l66.026-50.27c4.395-3.344 5.245-9.618 1.899-14.013z" fill="#ff0000"/>
</svg>
