<?xml version="1.0" encoding="iso-8859-1"?>
<!-- Generator: Adobe Illustrator 19.0.0, SVG Export Plug-In . SVG Version: 6.00 Build 0)  -->
<svg xmlns="http://www.w3.org/2000/svg" xmlns:xlink="http://www.w3.org/1999/xlink" version="1.1" id="Layer_1" x="0px" y="0px" viewBox="0 0 512 512" style="enable-background:new 0 0 512 512;" xml:space="preserve" width="512px" height="512px">
<g>
	<g>
		<path d="M435.639,74.409c-12.838-12.838-26.817-24.116-41.695-33.775c-1.308-18.833-15.27-34.324-34.172-37.385    c-2.153-0.349-4.349-0.526-6.527-0.526c-8.92,0-17.312,2.886-24.146,7.904C305.685,3.631,281.122,0,255.999,0    c-24.632,0-48.724,3.5-71.723,10.23c-3.727-0.946-7.625-1.456-11.642-1.456c-11.176,0-21.458,3.894-29.564,10.395    c-8.106-6.501-18.388-10.395-29.564-10.395c-26.097,0-47.328,21.231-47.328,47.328v29.112    C24.662,131.769,1.951,191.16,1.951,254.049c0,67.858,26.426,131.656,74.409,179.639c12.894,12.894,26.937,24.214,41.886,33.9    C123.399,492.896,145.827,512,172.635,512c11.376,0,21.96-3.445,30.773-9.339c17.107,3.583,34.706,5.437,52.592,5.437    c17.672,0,35.065-1.808,51.979-5.308c8.774,5.813,19.281,9.21,30.573,9.21c26.587,0,48.857-18.794,54.25-43.792    c15.306-9.819,29.671-21.352,42.838-34.52c47.983-47.983,74.409-111.781,74.409-179.639    C510.048,186.189,483.621,122.392,435.639,74.409z M279.089,59.912c8.245,0.974,16.335,2.463,24.236,4.435l-10.492,31.548    c-4.512-1.05-9.098-1.903-13.744-2.568V59.912z M117.13,391.522c-34.993-35.345-56.638-83.926-56.638-137.473    c0-29.957,6.782-58.357,18.876-83.76c6.126,11.098,14.171,20.995,23.69,29.233c-6.097,17.051-9.43,35.406-9.43,54.527    c0,30.749,8.592,59.529,23.501,84.065C117.13,338.114,117.13,391.522,117.13,391.522z M195.002,188.829v267.666    c0,12.354-10.014,22.368-22.368,22.368c-12.354,0-22.368-10.014-22.368-22.368V188.829c-29.52-9.48-50.951-37.188-50.951-69.817    V56.1c0-7.837,6.353-14.191,14.191-14.191s14.191,6.353,14.191,14.191v61.493h28.368V56.1c0-9.15,7.418-16.568,16.568-16.568    s16.568,7.418,16.568,16.568v61.493h28.368V56.1c0-7.837,6.353-14.191,14.191-14.191S245.95,48.263,245.95,56.1v62.911    C245.952,151.642,224.522,179.349,195.002,188.829z M283.048,447.676c-8.844,1.229-17.871,1.88-27.047,1.88    c-9.459,0-18.758-0.689-27.861-1.994v-33.543c9.056,1.572,18.363,2.401,27.861,2.401c9.215,0,18.248-0.784,27.047-2.266V447.676z     M360.919,456.495L360.919,456.495c0,12.354-10.014,22.368-22.368,22.368c-12.354,0-22.368-10.014-22.368-22.368V233.651h-19.534    c-3.408,0-6.609-1.638-8.603-4.403s-2.539-6.319-1.462-9.553l59.391-178.586c1.056-3.173,4.018-5.249,7.272-5.249    c0.406,0,0.818,0.032,1.23,0.099c3.713,0.601,6.442,3.808,6.442,7.57V456.495z M394.055,392.348v-52.93    c15.404-24.82,24.314-54.072,24.314-85.37c0-31.299-8.911-60.551-24.314-85.37v-52.93c35.473,35.411,57.451,84.337,57.451,138.301    C451.507,308.011,429.529,356.938,394.055,392.348z" fill="#ff0000"/>
	</g>
</g>
<g>
</g>
<g>
</g>
<g>
</g>
<g>
</g>
<g>
</g>
<g>
</g>
<g>
</g>
<g>
</g>
<g>
</g>
<g>
</g>
<g>
</g>
<g>
</g>
<g>
</g>
<g>
</g>
<g>
</g>
</svg>
