<?xml version="1.0" encoding="iso-8859-1"?>
<!-- Generator: Adobe Illustrator 16.0.0, SVG Export Plug-In . SVG Version: 6.00 Build 0)  -->
<!DOCTYPE svg PUBLIC "-//W3C//DTD SVG 1.1//EN" "http://www.w3.org/Graphics/SVG/1.1/DTD/svg11.dtd">
<svg xmlns="http://www.w3.org/2000/svg" xmlns:xlink="http://www.w3.org/1999/xlink" version="1.1" id="Capa_1" x="0px" y="0px" width="512px" height="512px" viewBox="0 0 45.273 45.273" style="enable-background:new 0 0 45.273 45.273;" xml:space="preserve">
<g>
	<g>
		<path d="M41.365,33.539l-30.877-0.062c-2.587-0.006-4.694-2.104-4.694-4.692V3.653c0-1.605-1.291-2.907-2.897-2.907    S0,2.048,0,3.653v26.581c0,4.992,4.044,9.049,9.038,9.061l2.037,0.004c0.138,2.906,2.546,5.229,5.486,5.229    c2.932,0,5.335-2.31,5.485-5.205l7.448,0.017c0.158,2.889,2.559,5.188,5.484,5.188c2.918,0,5.312-2.288,5.481-5.164l0.894,0.001    c0.002,0,0.004,0,0.006,0c1.604,0,2.904-1.305,2.908-2.907C44.271,34.851,42.971,33.541,41.365,33.539z M16.562,41.619    c-1.425,0-2.584-1.16-2.584-2.586c0-1.424,1.159-2.584,2.584-2.584c1.426,0,2.585,1.16,2.585,2.584    C19.146,40.458,17.987,41.619,16.562,41.619z M34.979,41.619c-1.424,0-2.584-1.16-2.584-2.586c0-1.424,1.16-2.584,2.584-2.584    c1.426,0,2.586,1.16,2.586,2.584C37.564,40.458,36.404,41.619,34.979,41.619z" fill="#ff0000"/>
		<path d="M29.307,10.029c0.17-0.359,0.264-0.761,0.264-1.186c0-1.531-1.24-2.772-2.772-2.772c-1.53,0-2.772,1.242-2.772,2.772    c0,0.426,0.095,0.826,0.265,1.186c-6.999,1.162-12.38,7.141-12.68,14.359h30.375C41.688,17.17,36.305,11.191,29.307,10.029z     M14.718,23.363c-0.472,0-0.854-0.382-0.854-0.854c0-0.474,0.382-0.854,0.854-0.854c0.472,0,0.854,0.381,0.854,0.854    C15.572,22.981,15.19,23.363,14.718,23.363z M24.229,12.832c-0.06,0.017-5.896,1.617-8.121,7.625    c-0.121,0.324-0.427,0.524-0.753,0.524c-0.093,0-0.187-0.017-0.279-0.051c-0.417-0.154-0.629-0.616-0.475-1.032    c2.523-6.813,8.95-8.55,9.222-8.621c0.429-0.113,0.868,0.147,0.979,0.577C24.914,12.283,24.656,12.72,24.229,12.832z" fill="#ff0000"/>
		<path d="M10.731,30.896h32.132c1.332,0,2.41-1.121,2.41-2.451c0-1.332-1.08-2.451-2.41-2.451H10.731    c-1.332,0-2.41,1.119-2.41,2.451C8.322,29.775,9.4,30.896,10.731,30.896z" fill="#ff0000"/>
	</g>
</g>
<g>
</g>
<g>
</g>
<g>
</g>
<g>
</g>
<g>
</g>
<g>
</g>
<g>
</g>
<g>
</g>
<g>
</g>
<g>
</g>
<g>
</g>
<g>
</g>
<g>
</g>
<g>
</g>
<g>
</g>
</svg>
