<?xml version="1.0" encoding="iso-8859-1"?>
<!-- Generator: Adobe Illustrator 19.0.0, SVG Export Plug-In . SVG Version: 6.00 Build 0)  -->
<svg xmlns="http://www.w3.org/2000/svg" xmlns:xlink="http://www.w3.org/1999/xlink" version="1.1" id="Capa_1" x="0px" y="0px" viewBox="0 0 489.5 489.5" style="enable-background:new 0 0 489.5 489.5;" xml:space="preserve" width="512px" height="512px">
<g>
	<g>
		<path d="M64.3,0v489.5h360.9V0H64.3z M334,51.6c3.5,0,6.4,2.9,6.4,6.4v26.6c0,9.6,4.8,15.5,12.4,15.5c7,0,12.4-4.6,12.4-15.5V58    c0-3.5,2.9-6.4,6.4-6.4h0.4c3.5,0,6.4,2.9,6.4,6.4v27c0,17.9-12.9,26.8-25.3,26.8c-12.6,0-25.6-5.7-25.6-26.8V58    C327.6,54.5,330.5,51.6,334,51.6L334,51.6z M265.1,51.6c0,0,4.3-0.9,7.8,2.6L300.1,90V58.2c0-3.6,3-6.6,6.6-6.6l0,0    c3.6,0,6.6,3,6.6,6.6v46.6c0,3.6-3,6.6-6.6,6.6c0,0-5,1-8.6-2.6l-26.4-35v30.7c0,3.6-3,6.6-6.6,6.6l0,0c-3.6,0-6.6-3-6.6-6.6V58.2    C258.5,54.6,261.4,51.6,265.1,51.6z M173,438.9h-55.2v-55.2H173V438.9z M173,331.3h-55.2v-55.2H173V331.3z M173,223.7h-55.2v-55.2    H173V223.7z M181.2,111.5L181.2,111.5c-3.6,0-6.6-3-6.6-6.6V73.8L160,103c-1.1,2.1-3.2,3.5-5.6,3.5l0,0c-2.4,0-4.6-1.3-5.6-3.5    l-14.6-29.2v31.1c0,3.6-3,6.6-6.6,6.6l0,0c-3.6,0-6.6-3-6.6-6.6V62.6c0-6,4.9-11,11-11l0,0c4.2,0,8.1,2.4,9.9,6.2l12.6,26.4    l12.6-26.4c1.8-3.8,5.7-6.2,9.9-6.2l0,0c6,0,11,4.9,11,11v42.3C187.8,108.5,184.8,111.5,181.2,111.5z M209.2,51.6h30.5    c3.3,0,6,2.7,6,6l0,0c0,3.3-2.7,6-6,6h-23.9V76H237c3.1,0,5.6,2.5,5.6,5.6l0,0c0,3.1-2.5,5.6-5.6,5.6h-21.2v12.4h24.9    c3.2,0,5.8,2.6,5.8,5.8l0,0c0,3.2-2.6,5.8-5.8,5.8h-31.5c-3.6,0-6.6-3-6.6-6.6V58.2C202.6,54.6,205.5,51.6,209.2,51.6z     M371.9,419.1h-150c-4.3,0-7.8-3.5-7.8-7.8s3.5-7.8,7.8-7.8h150c4.3,0,7.8,3.5,7.8,7.8S376.2,419.1,371.9,419.1z M371.9,311.5    h-150c-4.3,0-7.8-3.5-7.8-7.8s3.5-7.8,7.8-7.8h150c4.3,0,7.8,3.5,7.8,7.8S376.2,311.5,371.9,311.5z M371.9,204.3h-150    c-4.3,0-7.8-3.5-7.8-7.8s3.5-7.8,7.8-7.8h150c4.3,0,7.8,3.5,7.8,7.8S376.2,204.3,371.9,204.3z" fill="#ff0000"/>
	</g>
</g>
<g>
</g>
<g>
</g>
<g>
</g>
<g>
</g>
<g>
</g>
<g>
</g>
<g>
</g>
<g>
</g>
<g>
</g>
<g>
</g>
<g>
</g>
<g>
</g>
<g>
</g>
<g>
</g>
<g>
</g>
</svg>
